# xmcd
#
# Track frame offsets: 
#        150
#        23210
#        37392
#        55025
#        81042
#        93780
#        111732
#        115340
#        131322
#        150515
#        164187
#        167555
#        187670
#        190167
#        209397
#
# Disc length: 3076 seconds
#
# Revision: 1
# Processed by: cddbd v1.5.2PL0 Copyright (c) Steve Scherf et al.
# Submitted via: ExactAudioCopy v1.3
#
DISCID=c60c020f
DTITLE=Puffy AmiYumi - Fever*Fever
DYEAR=1999
DGENRE=JPop
TTITLE0=Stray Cats Fever
TTITLE1=For Our Dreams
TTITLE2=Sunday Girls
TTITLE3=Anything Can Become A Habit
TTITLE4=Pure Tears Are Not Enough
TTITLE5=The Sun
TTITLE6=Robot Prototype Version 0.2
TTITLE7=Puffy De Rumba
TTITLE8=The Lines Of Passion, Shapes of Love
TTITLE9=Always Dreamin' About You
TTITLE10=Summer Vacation Prototype
TTITLE11=It Works
TTITLE12=Puffy De Bossa
TTITLE13=Tararan
TTITLE14=Who Does It?
EXTD=
EXTT0=
EXTT1=
EXTT2=
EXTT3=
EXTT4=
EXTT5=
EXTT6=
EXTT7=
EXTT8=
EXTT9=
EXTT10=
EXTT11=
EXTT12=
EXTT13=
EXTT14=
PLAYORDER=
